<svg xmlns="http://www.w3.org/2000/svg" width="14" height="19" viewBox="0 0 14 19">
    <g fill="none" fillRule="evenodd">
        <g fill="#52B7E5" fillRule="nonzero">
            <g>
                <g transform="translate(-451.000000, -573.000000) translate(451.500000, 573.000000)">
                    <path d="M6.654 4.164l.438-.06c.06 0 .1.04.1.08v.976c0 .259.338.338.458.12l.996-1.873c.1-.18-.06-.379-.259-.359l-.438.06c-.06 0-.1-.04-.1-.08v-.976c0-.259-.338-.339-.458-.12l-.996 1.873c-.08.18.06.399.259.359zM4.702 8.287c0-.816-.638-1.593-1.176-2.111-.338-.319-.578-.717-.697-1.136l.239.08c.04.02.08.02.14.02.159 0 .298-.1.358-.24.08-.198-.02-.418-.22-.477l-1.593-.598c-.2-.08-.418.02-.478.22-.06.198.02.418.22.477l.557.22v.06c-.1.517-.359.975-.757 1.354C.757 6.674.12 7.45.12 8.268c0 1.534 1.175 2.071 2.29 2.071 1.116.02 2.292-.518 2.292-2.052zM2.43 9.622c-.577 0-1.534-.179-1.534-1.335 0-.438.34-.976.937-1.553.239-.24.438-.479.597-.757.16.278.36.537.598.757.598.577.936 1.135.936 1.553 0 1.156-.956 1.335-1.534 1.335zM1.494 3.287l1.594.598c.04.02.08.02.14.02.159 0 .298-.1.358-.24.08-.199-.02-.418-.22-.478L1.774 2.59c-.2-.08-.418.02-.478.219-.06.2 0 .398.2.478zM1.494 2.032l1.594.598c.04.02.08.02.14.02.159 0 .298-.1.358-.24.08-.199-.02-.418-.22-.478l-.557-.199V.478c0-.2-.16-.378-.379-.378s-.378.159-.378.378v.956l-.299-.1c-.2-.079-.418.02-.478.22-.08.18.02.398.22.478z"/>
                    <circle cx="7.511" cy="7.83" r="1.673" transform="translate(7.510854, 7.829646) rotate(-2.566455) translate(-7.510854, -7.829646)"/>
                    <path d="M12.411 13.248l-2.37-2.53c-.479-.518-1.176-.817-1.873-.817H6.853c-.717 0-1.394.299-1.873.817l-2.35 2.53c-.28.319-.28.797.04 1.076.219.219.537.259.816.14-.14.218-.179.477-.1.716l1.037 3.228c.14.458.637.717 1.095.558.459-.14.718-.638.558-1.096l-.657-2.092h4.203l-.657 2.092c-.14.458.1.956.558 1.096.08.02.179.04.259.04.378 0 .717-.24.836-.618l1.036-3.227c.08-.24.04-.498-.1-.718.1.04.18.06.28.06.179 0 .378-.06.518-.2.318-.258.338-.756.06-1.055zm-6.514.797H4.223c-.1 0-.219.02-.298.06l1.992-2.132v2.072h-.02zm4.92 0H9.145v-2.072l1.992 2.132c-.1-.02-.219-.06-.318-.06z"/>
                </g>
            </g>
        </g>
    </g>
</svg>
