<svg xmlns="http://www.w3.org/2000/svg" width="17" height="22" viewBox="0 0 17 22">
    <g fill="none" fillRule="evenodd">
        <g fillRule="nonzero">
            <g>
                <g>
                    <path fill="#000" d="M10.237 2.24c0 1.195-.967 2.163-2.162 2.163-1.195 0-2.162-.968-2.162-2.163 0-1.193.967-2.16 2.162-2.16 1.195 0 2.162.967 2.162 2.16z" transform="translate(-450.000000, -643.000000) translate(450.500000, 643.000000)"/>
                    <path fill="#484848" d="M15.657 1.846l-5.059 5.06v13.263c0 .598-.485 1.081-1.082 1.081-.597 0-1.081-.483-1.081-1.08v-7.207c0-.198-.16-.36-.36-.36-.2 0-.36.162-.36.36v7.206c0 .598-.484 1.081-1.08 1.081-.598 0-1.083-.483-1.083-1.08V6.905L.493 1.846C.071 1.424.071.74.493.316c.423-.421 1.108-.421 1.529 0 0 0 2.623 2.676 3.53 3.533.515.483 1.438 1.274 2.523 1.274 1.085 0 2.009-.79 2.523-1.274.907-.857 3.53-3.532 3.53-3.532.421-.423 1.106-.423 1.529 0 .422.422.422 1.107 0 1.53z" transform="translate(-450.000000, -643.000000) translate(450.500000, 643.000000)"/>
                </g>
            </g>
        </g>
    </g>
</svg>
