<svg xmlns="http://www.w3.org/2000/svg" width="10" height="24" viewBox="0 0 10 24">
    <g fill="none" fillRule="evenodd">
        <g fill="#E58760" fillRule="nonzero">
            <g>
                <g>
                    <path d="M2.522 22.633c0 .518.42.938.937.938.518 0 .938-.42.938-.938v-4.645c-.723-.009-1.349-.08-1.875-.178v4.823zM4.71 17.988v4.645c0 .518.419.938.937.938.517 0 .937-.42.937-.938V17.81c-.526.098-1.152.17-1.875.178zM4.553 17.716c2.369 0 3.743-.67 4.013-.816l.05-.027-1.82-8.94c.403-.01.786-.036 1.13-.114.219-.052.428-.118.636-.268.102-.075.205-.177.282-.312.077-.133.12-.299.12-.454-.001-.198-.06-.37-.138-.522l-.02-.038c-.09-.161-.206-.308-.349-.459-.426-.446-1.104-.948-2.177-1.609-.286-.176-.662-.086-.838.2-.176.287-.086.663.2.839 1.027.628 1.65 1.108 1.93 1.408l.035.037c-.061.013-.132.025-.21.034l-.04.004c-.244.027-.55.039-.876.038-.463 0-.96-.02-1.415-.032-.01-.101-.015-.21-.018-.323l-.006-.167c.359-.09.686-.277.945-.54-.144-.092-.295-.187-.452-.283-.384-.236-.504-.74-.269-1.123.15-.243.41-.388.696-.388.15 0 .298.041.426.12l.175.109c-.064-.856-.673-1.608-1.553-1.813-1.084-.252-2.167.422-2.42 1.506-.023.099-.038.197-.046.296l.27-.252c.151-.14.348-.217.554-.217.226 0 .445.096.598.262.11.12.178.263.204.412.148.055.336.23.502.755.18.581.12 1.218.177 1.74.029.261.088.5.244.685.125.15.31.249.557.29-.094.101-.25.236-.434.348-.288.182-.65.33-.948.33-.176-.002-.326-.048-.448-.159s-.224-.297-.273-.598c-.045-.276-.063-.51-.063-.713-.001-.817.286-1.091.298-1.49 0-.086-.018-.174-.057-.264-.191.179-.371.35-.54.511.079.073.163.14.252.2-.075.22-.16.513-.175.929-.222.047-.445.1-.664.15-.326.077-.64.152-.911.205-.073.015-.143.028-.209.039.12-.158.281-.352.488-.577.414-.455 1.01-1.045 1.816-1.792.247-.229.262-.614.033-.861-.228-.247-.614-.262-.861-.033-.823.761-1.438 1.37-1.888 1.864-.451.497-.737.865-.913 1.212-.083.174-.15.348-.153.574-.001.137.033.298.117.437.127.213.33.328.489.377.164.052.309.062.453.063.276 0 .559-.047.865-.107.1-.02.201-.042.304-.064L.49 16.873l.05.027c.269.145 1.643.816 4.012.816zM9.095 1.436c-.426-.774-1.792.491-1.792.491.86-.082 2.218.284 1.792-.49zM7.331 3.106c.656.235 1.523.968 1.478.256-.046-.712-1.478-.256-1.478-.256zM7.225.021c-.851-.24-.907 1.621-.907 1.621.544-.67 1.757-1.381.907-1.62z" transform="translate(-381.000000, -641.000000) translate(381.500000, 641.000000)"/>
                </g>
            </g>
        </g>
    </g>
</svg>
