<svg xmlns="http://www.w3.org/2000/svg" width="9" height="23" viewBox="0 0 9 23">
    <g fill="none" fillRule="evenodd">
        <g fill="#D90000" fillRule="nonzero">
            <g>
                <g transform="translate(-454.000000, -499.000000) translate(454.500000, 499.000000)">
                    <path d="M5.742 10.98h-.007c-.244-.004-.42-.07-.565-.13-.143-.064-.264-.132-.37-.193l-.043-.024c-.2-.114-.407-.233-.633-.322-.097-.038-.182-.093-.255-.159-.037-.002-.073-.004-.11-.004-.62.003-1.03.235-1.463.481-.072.04-.144.082-.217.121l-.062.031c-.166.084-.372.188-.702.198H1.302h-.001v1.701L.6 21.275c-.046.56.37 1.05.93 1.095.56.046 1.05-.37 1.095-.93l.61-7.485h.576l.61 7.485c.046.56.537.976 1.096.93.56-.045.976-.536.93-1.095l-.701-8.595v-1.7h-.004z"/>
                    <circle cx="3.523" cy="4.747" r="1.849"/>
                    <path d="M.205 9.986c.14.284.367.552.691.716.132.067.28.096.407.096h.007c.324-.01.507-.12.683-.207.509-.277.988-.62 1.767-.624.123 0 .254.01.395.03.36.054.694-.193.748-.552.054-.36-.193-.694-.552-.748-.206-.03-.403-.045-.591-.045-.8-.001-1.43.26-1.869.491-.208.11-.38.214-.498.278l-.01-.017c-.02-.04-.037-.09-.049-.147l.166-.104c.088-.05.193-.11.307-.17.651-.344 1.288-.512 1.946-.512.21 0 .417.016.625.047.215.033.4.146.526.304.211.093.396.192.565.287l.078.045.166.103c-.013.057-.03.107-.05.147l-.01.017c-.071-.04-.166-.093-.273-.155-.098-.055-.208-.115-.33-.176.039.12.052.249.032.382-.06.396-.4.697-.797.712.215.094.411.206.604.316.112.063.222.126.352.183.129.055.282.113.496.115h.006c.127 0 .275-.029.408-.096.324-.164.551-.432.69-.716l.009-.017c.135-.282.196-.586.197-.894-.001-.462-.14-.946-.474-1.345-.31-.376-.814-.636-1.39-.661-.023-.003-.048-.004-.072-.004H1.936c-.025 0-.049.001-.072.004-.576.025-1.08.285-1.39.661C.14 8.13.001 8.613 0 9.075c0 .308.062.612.197.894l.008.017zM5.791 2.324l.028-.001-.184 1.066.12.028.197-.872.16-.711-.203-.036-.065.38c-.347-.034-.617-.326-.617-.68 0-.363.282-.659.64-.681l-.002.025c0 .176.054.34.146.475-.03-.08-.049-.166-.049-.257 0-.388.315-.703.704-.703.388 0 .703.315.703.703 0 .184-.071.352-.187.477.078-.053.146-.12.202-.196.14.126.23.308.23.51 0 .378-.306.684-.683.684-.13 0-.253-.038-.357-.102l.183-.345-.182-.096-.3.642-.388.828.112.053.478-.899c.142.102.315.163.503.163.476 0 .862-.386.862-.863 0-.296-.149-.557-.376-.712.053-.11.083-.232.083-.362C7.549.377 7.172 0 6.707 0c-.412 0-.754.296-.827.686C5.85.683 5.82.681 5.79.681c-.453 0-.821.368-.821.822 0 .453.368.821.821.821z"/>
                </g>
            </g>
        </g>
    </g>
</svg>
