<svg xmlns="http://www.w3.org/2000/svg" width="12" height="17" viewBox="0 0 12 17">
    <g fill="none" fillRule="evenodd">
        <g fill="#008E6A" fillRule="nonzero">
            <g>
                <path d="M8.56 3.165C8.56 1.417 7.141 0 5.394 0 3.647 0 2.23 1.417 2.23 3.165c0 1.747 1.417 3.164 3.165 3.164 1.747 0 3.164-1.417 3.164-3.164z" transform="translate(-452.000000, -433.000000) translate(452.500000, 433.000000)"/>
                <path d="M9.27 10.105c.753.083 1.431-.456 1.519-1.207.009-1.481-.209-2.955-.645-4.37-.185-.56-.594-1.02-1.128-1.27-.053 1.962-1.659 3.525-3.62 3.525-1.963 0-3.569-1.563-3.622-3.525-.534.25-.942.71-1.128 1.27C.21 5.943-.008 7.417 0 8.898c.088.751.766 1.29 1.518 1.207.227-.59.714-1.042 1.32-1.225.605-.182 1.26-.074 1.775.293.139-.24.289-.471.45-.696-1.04-.336-2.147-.407-3.22-.205.031-.757.131-1.51.297-2.25l.457.055c-.126.547-.213 1.102-.262 1.662 1.034-.107 2.08.019 3.06.367.98-.348 2.025-.474 3.06-.367-.05-.56-.137-1.115-.262-1.662l.456-.055c.167.74.267 1.493.299 2.25-.866-.163-1.755-.15-2.615.04-.476.105-.89.395-1.15.805-.078.121-.151.244-.222.37.202.229.35.501.434.796.239-.848.994-1.447 1.874-1.487.88-.04 1.686.487 2.002 1.31z" transform="translate(-452.000000, -433.000000) translate(452.500000, 433.000000)"/>
                <path d="M8.95 10.838c-.005-.873-.714-1.578-1.587-1.578s-1.582.705-1.588 1.578v4.15c.006.874.715 1.579 1.588 1.579.873 0 1.582-.705 1.587-1.578v-4.151zM1.84 14.989c.017.864.723 1.556 1.587 1.556s1.57-.692 1.587-1.556v-4.151c-.017-.864-.723-1.556-1.587-1.556s-1.57.692-1.587 1.556v4.15z" transform="translate(-452.000000, -433.000000) translate(452.500000, 433.000000)"/>
            </g>
        </g>
    </g>
</svg>
