<svg xmlns="http://www.w3.org/2000/svg" width="14" height="16" viewBox="0 0 14 16">
    <g fill="none" fillRule="evenodd">
        <g fill="#8C007B" fillRule="nonzero">
            <g>
                <g>
                    <path d="M6.308 3.61c-.069-.4.2-.778.598-.846.398-.068.776.2.845.598l.008.045.028.142c.025.123.064.297.116.495.03.114.064.237.102.362.379-.582.514-1.305.242-1.956-.384-.932-1.828-1.209-3.02-.338-1.495 1.09-2.743 2.484-3.664 4.089-.735 1.28-.301 2.685.666 2.966.153.045.308.066.461.071.076.018.154.03.235.03h4.59l.917 5.008c.089.486.513.826.99.826.06 0 .12-.006.181-.017.547-.1.91-.624.81-1.171L9.345 8.079c-.087-.478-.504-.825-.99-.825H5.23c.46-.65 1.001-1.24 1.609-1.755-.042-.104-.08-.207-.117-.31-.282-.802-.41-1.557-.414-1.58zM11.355.12c-1.071-.381-2.249.178-2.63 1.249-.343.965.077 2.016.948 2.494.115-.275.234-.584.358-.929.136-.38.555-.579.936-.443.38.137.579.556.442.936-.079.221-.157.43-.234.626.64-.164 1.19-.634 1.429-1.304.381-1.071-.178-2.248-1.25-2.63z" transform="translate(-379.000000, -433.000000) translate(379.500000, 433.000000)"/>
                    <path d="M.86 9.831L0 14.864 6.754 14.864 5.893 9.831zM10.905 2.664c-.06-.022-.122-.033-.185-.033-.231 0-.44.147-.517.365-.129.361-.25.674-.365.947-.317.757-.574 1.197-.75 1.444-.185.265-.324.376-.375.412l-.13.09-.109-.105c-.075-.073-.19-.222-.289-.418-.126-.24-.232-.525-.313-.775-.068-.21-.118-.393-.146-.501-.043-.165-.083-.335-.118-.504l-.029-.145-.009-.048c-.045-.265-.272-.457-.54-.457-.031 0-.063.003-.094.008-.144.025-.27.105-.355.224-.085.12-.118.265-.094.403l.003.02c.044.24.171.874.404 1.537.028.078.058.161.092.247.112.284.26.603.466.894.144.2.288.348.455.464.118.083.363.222.677.222h.01c.254 0 .523-.093.758-.264.332-.24.612-.586.936-1.152.224-.395.446-.873.673-1.443.091-.229.183-.47.276-.73.05-.139.042-.288-.02-.42-.063-.133-.174-.233-.312-.282z" transform="translate(-379.000000, -433.000000) translate(379.500000, 433.000000)"/>
                </g>
            </g>
        </g>
    </g>
</svg>
