<svg xmlns="http://www.w3.org/2000/svg" width="10" height="22" viewBox="0 0 10 22">
    <g fill="none" fillRule="evenodd">
        <g fill="#EA9A0A" fillRule="nonzero">
            <g>
                <g>
                    <path d="M.442 20.632c-.018.442.326.815.768.833h.033c.428 0 .783-.337.8-.769l.133-3.323c-.643-.192-1.193-.427-1.58-.612l-.154 3.87zM6.863 20.696c.017.432.372.77.8.77h.032c.443-.019.787-.392.77-.834l-.158-3.924c-.368.182-.921.427-1.579.631l.135 3.357zM4.397 17.378c1.876 0 3.653-.87 4.214-1.173.118-.064.183-.103.183-.103-1.726-2.217-2.346-5.192-2.541-6.453.213-.095.47-.227.734-.405.317-.215.646-.499.904-.878.259-.377.44-.86.439-1.412-.002-.827-.386-1.756-1.282-2.812-.186-.219-.515-.246-.734-.06-.141.12-.202.3-.178.47l-.93.509c-.129-.069-.269-.122-.418-.157-.422-.098-.844-.031-1.2.157l-.93-.509c.025-.17-.036-.35-.178-.47-.22-.186-.548-.16-.734.06C.85 5.198.466 6.126.465 6.954c-.002.553.18 1.035.438 1.412.39.568.93.924 1.365 1.152.097.05.188.094.274.132-.195 1.26-.816 4.235-2.542 6.452 0 0 .065.039.184.103.56.302 2.338 1.173 4.213 1.173zm0-10.173c.472 0 .855.198.855.441 0 .244-.383 0-.855 0s-.855.244-.855 0c0-.243.383-.44.855-.44zm-2.647.553c-.15-.231-.242-.484-.243-.804-.002-.46.206-1.11.898-1.974l.452.83c-.06.12-.106.247-.138.382-.216.926.36 1.853 1.288 2.069.926.215 1.853-.361 2.068-1.288.095-.408.037-.815-.138-1.163l.452-.83c.693.864.9 1.515.898 1.974 0 .33-.098.59-.257.826-.237.353-.637.635-.984.813-.173.09-.33.155-.441.196l-.04.015c-.234-.052-.685-.137-1.168-.138-.483.001-.934.086-1.168.138-.186-.067-.547-.216-.882-.453-.231-.162-.447-.363-.597-.593zM2.62 2.932c-.077.045.122.116.174.085.324-.19.633-.459.6-.867-.015-.171-.1-.35-.216-.477-.04-.045-.25-.056-.194.006.091.1.15.228.183.358.105.404-.235.71-.547.895zM4.778 2.196c.116-.047-.067-.137-.134-.11-.31.124-.653.187-.824-.16-.06-.121-.092-.27-.092-.404 0-.083-.213-.116-.213-.045 0 .2.056.408.174.572.253.352.74.287 1.089.147zM4.944 2.647c.059-.02-.047-.208-.121-.181-.168.06-.315.173-.429.309-.245.291-.155.684 0 .993.046.089.183.124.116-.008-.235-.465-.059-.938.434-1.113z" transform="translate(-381.000000, -500.000000) translate(381.500000, 500.000000)"/>
                    <path d="M2.884 3.52c.267-.114.64-.223.82.08.06.104.09.235.09.355 0 .106.216.111.215-.008 0-.181-.067-.366-.18-.506-.266-.33-.749-.205-1.077-.066-.125.054.033.186.132.144zM1.638 3.466c-.243-.002-.395.127-.468.25-.075.124-.087.24-.088.247-.005.044.027.084.071.088h.01c.04 0 .074-.03.079-.07 0 0 .001-.02.011-.055.034-.108.11-.299.385-.3.031 0 .065.002.102.008.043.007.084-.023.09-.067.008-.044-.022-.085-.066-.091-.045-.007-.086-.01-.126-.01z" transform="translate(-381.000000, -500.000000) translate(381.500000, 500.000000)"/>
                    <path d="M1.781 3.119c-.082-.016-.159-.023-.23-.023-.342-.002-.555.173-.667.343-.114.17-.14.334-.14.34-.008.044.022.085.065.092h.013c.039 0 .073-.027.08-.066 0 0 .004-.032.022-.084.057-.162.202-.464.627-.465.06 0 .127.006.2.02.043.009.085-.02.094-.063.008-.044-.02-.086-.064-.094zM7.634 4.468c.006.002.014.003.02.003.036 0 .068-.023.078-.06.02-.071.028-.138.028-.2.001-.213-.112-.355-.22-.43-.107-.077-.209-.1-.215-.102-.043-.01-.086.018-.096.061-.01.043.018.086.061.096 0 0 .017.003.047.015.094.04.263.13.263.36 0 .046-.007.098-.023.16-.012.042.014.086.057.097z" transform="translate(-381.000000, -500.000000) translate(381.500000, 500.000000)"/>
                    <path d="M7.983 4.523l.024.003c.035 0 .066-.022.077-.056.038-.123.056-.235.056-.337 0-.299-.152-.498-.298-.612-.147-.116-.29-.156-.295-.158-.043-.012-.087.013-.099.056-.012.042.013.087.055.099 0 0 .027.007.073.028.14.064.404.226.403.587 0 .083-.014.18-.048.29-.014.042.01.087.052.1zM5.482.887c-.142.42.083.874.502 1.017l.025.007-.504.927.102.063.455-.743.372-.606-.176-.097-.18.33c-.31-.14-.468-.494-.357-.822.114-.335.468-.52.804-.428l-.009.023c-.055.162-.056.33-.013.484-.004-.083.007-.168.035-.252.122-.359.511-.551.87-.43.36.122.551.512.43.87-.058.171-.177.303-.323.383.089-.025.172-.066.248-.118.09.16.116.356.052.544-.118.348-.496.535-.844.416-.121-.04-.222-.114-.298-.205l.277-.261-.139-.146-.478.498-.617.644.087.083.723-.68c.098.139.24.249.413.308.44.15.918-.086 1.067-.526.093-.274.037-.561-.124-.776.083-.085.149-.189.19-.309.145-.43-.085-.896-.514-1.041-.38-.13-.79.036-.98.374-.025-.012-.052-.023-.08-.032-.418-.142-.873.082-1.016.501z" transform="translate(-381.000000, -500.000000) translate(381.500000, 500.000000)"/>
                </g>
            </g>
        </g>
    </g>
</svg>
