<svg xmlns="http://www.w3.org/2000/svg" width="9" height="19" viewBox="0 0 9 19">
    <g fill="none" fillRule="evenodd">
        <g fill="#D3007B" fillRule="nonzero">
            <g>
                <g>
                    <path d="M6.087 13.253l.283-3.768v-.016c.004-.027.007-.054.007-.082V8.58l-.157.003h-.002c-.212-.001-.437-.014-.672-.03-.042.006-.085.01-.128.01-.045 0-.09-.004-.135-.011-.098-.016-.2-.029-.305-.04v.003l-.757.956-.757-.956v-.003h-.01c-.102.011-.2.024-.294.04-.045.007-.09.011-.135.011-.043 0-.086-.004-.128-.01-.235.016-.46.029-.673.03h-.001l-.157-.003V9.387c0 .028.003.056.006.083v.015l.283 3.768-1.339 3.621c-.19.516.073 1.09.589 1.28.114.042.23.062.345.062.405 0 .786-.249.934-.65L4.3 13.74c.05-.137.07-.275.059-.42l-.249-3.317H4.333l-.024.324.224 2.98c.013.17-.01.332-.07.494l-.148.402 1.243 3.362c.149.402.53.651.935.651.114 0 .231-.02.345-.062.516-.19.78-.764.589-1.28l-1.34-3.621zM1.238 3.396c.047-.028.096-.043.133-.052.036-.009.057-.01.057-.01.044-.003.077-.04.074-.085-.003-.043-.04-.077-.084-.074-.007 0-.13.008-.26.083-.131.073-.267.23-.265.488 0 .03.002.062.005.095.005.041.04.071.08.071h.009c.043-.006.075-.045.07-.089-.003-.027-.005-.053-.005-.077.003-.204.091-.293.186-.35z" transform="translate(-382.000000, -574.000000) translate(382.500000, 574.000000)"/>
                    <path d="M.972 3.095c.073-.047.148-.075.204-.091.055-.017.088-.02.088-.02.044-.006.075-.046.07-.09-.005-.043-.045-.074-.088-.069-.007.001-.18.021-.36.135-.18.112-.365.331-.363.695 0 .06.005.122.015.19.006.039.04.067.079.067h.011c.044-.007.074-.048.067-.092-.009-.06-.012-.114-.012-.165.001-.31.142-.465.289-.56zM.517 8.243c-.01-.036-.01-.056-.01-.056C.502 8.143.463 8.11.42 8.114c-.044.004-.076.042-.072.086 0 .007.01.127.085.254.073.127.226.26.475.26h.005c.035 0 .071-.002.11-.007.043-.006.074-.045.068-.089-.005-.044-.045-.075-.089-.07-.032.005-.061.007-.089.007-.197-.002-.285-.09-.343-.182-.028-.046-.044-.095-.053-.13z" transform="translate(-382.000000, -574.000000) translate(382.500000, 574.000000)"/>
                    <path d="M.824 9.086c.064 0 .134-.006.208-.019.043-.007.073-.048.066-.091-.008-.044-.049-.073-.092-.066-.067.011-.127.016-.182.016-.301-.001-.456-.14-.551-.283-.047-.072-.077-.145-.093-.2-.017-.054-.021-.087-.022-.086-.006-.044-.046-.075-.09-.069-.043.006-.073.047-.067.09 0 .007.024.176.138.352.112.175.327.355.68.355h.005zM.995 12.737c-.036.026-.044.075-.018.11.08.112.104.204.104.28 0 .1-.045.182-.094.241-.024.03-.048.052-.066.068-.018.015-.027.02-.027.02-.037.025-.048.074-.023.111.015.023.04.036.066.036.015 0 .03-.004.044-.013.005-.006.255-.161.26-.463 0-.112-.04-.24-.135-.372-.026-.036-.076-.044-.111-.018z" transform="translate(-382.000000, -574.000000) translate(382.500000, 574.000000)"/>
                    <path d="M1.25 13.647c-.027.024-.042.034-.042.035-.035.026-.043.076-.017.111.016.022.04.033.065.033.016 0 .033-.005.047-.015.005-.007.336-.243.34-.658 0-.172-.062-.37-.224-.578-.028-.034-.078-.04-.112-.013-.035.026-.041.077-.014.111.144.186.19.346.19.48 0 .161-.067.293-.137.387-.035.046-.07.083-.097.107zM7.457 3.912h.008c.04 0 .075-.03.08-.071.003-.033.005-.065.005-.095.002-.258-.134-.415-.265-.488-.13-.075-.253-.082-.26-.083-.044-.003-.081.03-.084.075-.003.043.03.081.074.084 0 0 .02.001.057.01.114.032.316.103.318.402 0 .024-.001.05-.004.078-.005.044.027.083.071.088z" transform="translate(-382.000000, -574.000000) translate(382.500000, 574.000000)"/>
                    <path d="M7.815 3.911l.011.001c.04 0 .073-.028.079-.068.01-.067.015-.13.015-.189.001-.364-.183-.583-.364-.695-.18-.114-.352-.134-.359-.135-.043-.005-.083.026-.088.07-.006.044.026.083.07.088 0 0 .033.004.088.02.171.055.492.194.493.652 0 .05-.004.106-.013.166-.006.043.024.084.068.09zM7.458 9.203s-.001.02-.01.056c-.033.111-.108.31-.397.312-.027 0-.057-.002-.089-.006-.043-.006-.083.025-.089.069-.006.043.025.083.07.089.037.005.073.007.108.007h.006c.249 0 .402-.133.475-.26.075-.127.084-.247.085-.254.004-.044-.029-.082-.073-.086-.043-.004-.082.029-.086.073z" transform="translate(-382.000000, -574.000000) translate(382.500000, 574.000000)"/>
                    <path d="M7.896 9.304c-.044-.006-.084.024-.09.068 0 0-.004.033-.021.088-.056.167-.199.481-.644.482-.056 0-.116-.005-.182-.016-.044-.007-.085.023-.092.066-.007.043.022.084.066.091.074.013.143.019.208.019h.005c.352 0 .568-.18.68-.356.114-.176.137-.345.138-.352.006-.043-.024-.084-.068-.09zM7.549 13.457s-.01-.006-.027-.021c-.056-.047-.162-.16-.16-.31 0-.075.025-.167.104-.278.026-.036.018-.086-.018-.111-.036-.026-.085-.018-.111.018-.096.132-.135.26-.135.372.005.302.254.457.26.463.013.009.028.013.043.013.026 0 .052-.013.067-.036.024-.037.014-.086-.023-.11z" transform="translate(-382.000000, -574.000000) translate(382.500000, 574.000000)"/>
                    <path d="M7.136 12.562c-.034-.028-.085-.021-.112.013-.162.208-.225.406-.224.578.004.415.334.651.34.657.014.01.03.016.047.016.025 0 .049-.011.065-.033.026-.035.018-.085-.018-.11l-.04-.036c-.08-.074-.236-.254-.235-.494 0-.134.046-.293.191-.48.027-.034.02-.085-.014-.111zM.822 7.412c.004.176.061.379.18.54.182.245.428.346.625.396.204.05.395.059.597.06.602-.003 1.325-.105 2.078-.104.34 0 .683.02 1.01.075.347.058.676-.177.734-.524.058-.347-.177-.675-.524-.733-.418-.07-.83-.093-1.22-.093-.854.002-1.627.106-2.078.103-.05 0-.094 0-.133-.003l-.002-.175c0-.687.062-1.194.147-1.562l.18-.003c-.084.345-.152.847-.151 1.564v.004c.184-.001.422-.019.695-.04l.363-.025c.118-.012.24-.02.365-.027l.213-1.563c.103.038.212.059.32.059.11 0 .218-.02.321-.06l.213 1.564c.126.006.249.015.368.027l.36.026c.273.02.511.038.695.039v-.004c.002-.821-.089-1.36-.19-1.705l.181-.005c.104.376.186.926.185 1.71 0 .058 0 .117-.002.176-.039.002-.083.004-.133.003-.084.001-.18-.002-.285-.008.054.045.103.096.145.154.126.177.176.392.14.606-.035.212-.15.393-.31.514.106.005.21.01.31.01.202-.001.393-.01.597-.06.197-.05.443-.15.625-.396.119-.161.176-.364.18-.54.005-.159.008-.312.008-.458 0-.708-.058-1.28-.157-1.748-.071-.333-.162-.614-.27-.855-.255-.577-.636-.914-.968-1.057-.22-.097-.402-.113-.497-.113l-.048.001c-.03.002-.06.007-.088.013-.355.35-.843.566-1.38.566-.537 0-1.024-.216-1.38-.566-.028-.006-.057-.01-.087-.013h-.049c-.094-.001-.277.015-.496.112-.332.143-.713.48-.968 1.057-.13.289-.236.636-.31 1.062-.074.428-.116.934-.117 1.54 0 .147.003.3.008.46zm3.097-3.08h.605l.152.597-.023.036c-.125.104-.278.156-.432.156-.153 0-.306-.052-.43-.156l-.024-.036.152-.598z" transform="translate(-382.000000, -574.000000) translate(382.500000, 574.000000)"/>
                    <path d="M4.221 3.586c.99 0 1.793-.803 1.793-1.793C6.014.803 5.212 0 4.221 0c-.99 0-1.793.803-1.793 1.793 0 .99.803 1.793 1.793 1.793zm.245-.95c.218 0 .455.047.677.179l-.123.205c-.178-.106-.368-.144-.554-.144-.333 0-.644.127-.774.191-.042.02-.063.032-.065.034l-.12-.207c.01-.004.437-.255.96-.257z" transform="translate(-382.000000, -574.000000) translate(382.500000, 574.000000)"/>
                </g>
            </g>
        </g>
    </g>
</svg>
