<svg xmlns="http://www.w3.org/2000/svg" width="13" height="11" viewBox="0 0 13 11">
    <g fill="none" fillRule="evenodd">
        <g fill="#000" fillRule="nonzero">
            <g>
                <g>
                    <path d="M11.633.676C11.2.243 10.613 0 10 0c-.612-.001-1.199.242-1.63.675l-2.98 2.98c-.59.59-.815 1.453-.59 2.256.066.234.31.37.543.304.234-.066.37-.309.304-.542-.139-.497 0-1.03.365-1.396l2.98-2.979c.557-.557 1.46-.557 2.017 0 .557.557.557 1.46 0 2.017l-2.98 2.98c-.195.196-.443.33-.713.387-.238.05-.39.282-.341.52.043.205.223.351.432.35.03 0 .062-.003.092-.009.437-.092.837-.31 1.153-.626l2.98-2.979c.9-.9.901-2.36 0-3.262z" transform="translate(-201.000000, -350.000000) translate(201.000000, 350.000000) translate(-0.000020, 0.010848)"/>
                    <path d="M7.495 4.22c-.066-.233-.31-.37-.543-.303-.234.066-.37.309-.304.543.139.497 0 1.03-.365 1.395l-2.98 2.98c-.557.557-1.46.557-2.017 0-.558-.557-.558-1.46 0-2.018l2.98-2.98c.194-.195.442-.33.712-.387.238-.047.393-.279.345-.517-.048-.239-.28-.393-.518-.345l-.008.001c-.437.093-.838.31-1.154.626l-2.98 2.98c-.894.908-.883 2.368.025 3.262.898.884 2.34.884 3.237 0l2.98-2.98c.59-.59.815-1.453.59-2.256z" transform="translate(-201.000000, -350.000000) translate(201.000000, 350.000000) translate(-0.000020, 0.010848)"/>
                </g>
            </g>
        </g>
    </g>
</svg>
