<svg xmlns="http://www.w3.org/2000/svg" width="15" height="15" viewBox="0 0 15 15">
    <g fill="none" fillRule="evenodd">
        <g fill="#373737" fillRule="nonzero">
            <g>
                <path d="M5.94 0H.6C.27 0 0 .27 0 .6v5.34c0 .33.27.6.6.6h5.34c.33 0 .6-.27.6-.6V.6c-.015-.33-.27-.6-.6-.6zm-.48 5.46H1.065V1.065H5.46V5.46zM13.65 0H8.31c-.33 0-.6.27-.6.6v5.34c0 .33.27.6.6.6h5.34c.33 0 .6-.27.6-.6V.6c0-.33-.27-.6-.6-.6zm-.465 5.46H8.79V1.065h4.395V5.46zM5.94 7.725H.6c-.33 0-.6.27-.6.6v5.34c0 .33.27.6.6.6h5.34c.33 0 .6-.27.6-.6V8.31c-.015-.33-.27-.585-.6-.585zm-.48 5.46H1.065V8.79H5.46v4.395zM13.65 7.725H8.31c-.33 0-.6.27-.6.6v5.34c0 .33.27.6.6.6h5.34c.33 0 .6-.27.6-.6V8.31c0-.33-.27-.585-.6-.585zm-.465 5.46H8.79V8.79h4.395v4.395z" transform="translate(-333.000000, -720.000000) translate(333.000000, 720.000000)"/>
            </g>
        </g>
    </g>
</svg>
