<svg xmlns="http://www.w3.org/2000/svg" width="16" height="15" viewBox="0 0 16 15">
    <g fill="none" fillRule="evenodd">
        <g fill="#373737" fillRule="nonzero" stroke="#373737" strokeWidth=".4">
            <g>
                <g>
                    <path d="M13.086.293H1.636C.84.293.194.939.193 1.735v11.193c0 .796.646 1.44 1.441 1.442h11.451c.796-.001 1.44-.646 1.442-1.442V1.735C14.527.939 13.882.294 13.086.293zM1.636.93h11.45c.444.001.804.36.804.805v6.409L10.933 5.28c-.123-.12-.319-.12-.443-.001L6.295 9.302 4.902 7.864c-.118-.12-.309-.13-.437-.02l-3.634 3.12v-9.23c0-.443.36-.803.804-.804zM.83 12.928v-1.124l3.822-3.28L6.056 9.97v.001h.002l3.643 3.76H1.635c-.444 0-.803-.36-.804-.804zm12.255.804h-2.498L6.738 9.76 10.71 5.95l3.18 3.08v3.897c0 .444-.36.803-.804.804h0z" transform="translate(-274.000000, -720.000000) translate(275.000000, 720.000000)"/>
                    <path d="M3.679 5.165c.826 0 1.497-.67 1.497-1.497 0-.827-.67-1.497-1.497-1.497-.827 0-1.497.67-1.497 1.497 0 .826.67 1.496 1.497 1.497zm0-2.357c.474 0 .86.385.86.86 0 .474-.386.86-.86.86-.475 0-.86-.386-.86-.86 0-.475.385-.86.86-.86h0z" transform="translate(-274.000000, -720.000000) translate(275.000000, 720.000000)"/>
                </g>
            </g>
        </g>
    </g>
</svg>
