<svg xmlns="http://www.w3.org/2000/svg" width="17" height="16" viewBox="0 0 17 16">
    <g fill="none" fillRule="evenodd">
        <g fill="#373737" fillRule="nonzero">
            <g>
                <g transform="translate(-365.000000, -719.000000) translate(365.000000, 719.000000)">
                    <path d="M15.6 0H9.636c-.465.003-.91.19-1.236.522L1.734 7.164l-.774.78c-.682.7-.682 1.815 0 2.514l4.8 4.8c.7.682 1.815.682 2.514 0L15.678 7.8c.333-.335.52-.788.522-1.26V.6c0-.331-.269-.6-.6-.6zM15 6.564c-.002.152-.062.298-.168.408L7.41 14.4c-.23.21-.58.21-.81 0L1.8 9.6c-.217-.231-.217-.591 0-.822l.78-.78 6.648-6.63c.11-.106.256-.166.408-.168H15v5.364z"/>
                    <circle cx="12.276" cy="3.924" r="1.2"/>
                </g>
            </g>
        </g>
    </g>
</svg>
