<svg xmlns="http://www.w3.org/2000/svg" width="11" height="16" viewBox="0 0 11 16">
    <g fill="none" fillRule="evenodd">
        <g fill="#373737" fillRule="nonzero" stroke="#373737" strokeWidth=".55">
            <g>
                <g>
                    <g>
                        <path d="M4.512 11.365v1.74H1.934c-.238 0-.43.193-.43.43 0 .238.192.43.43.43h6.015c.237 0 .43-.192.43-.43 0-.237-.193-.43-.43-.43H5.371v-1.74c2.405-.218 4.297-2.244 4.297-4.705V5.371c0-.237-.192-.43-.43-.43-.237 0-.43.193-.43.43v1.29c0 2.132-1.734 3.866-3.867 3.866-2.132 0-3.867-1.734-3.867-3.867V5.371c0-.237-.192-.43-.43-.43-.237 0-.43.193-.43.43v1.29c0 2.46 1.892 4.486 4.298 4.704z" transform="translate(-242 -719) translate(145 696) translate(98 24)"/>
                        <path d="M7.52 6.66V2.793C7.52 1.371 6.363.215 4.94.215 3.52.215 2.363 1.37 2.363 2.793V6.66c0 1.422 1.157 2.578 2.578 2.578 1.422 0 2.579-1.156 2.579-2.578zm-4.297 0V2.793c0-.948.77-1.719 1.718-1.719s1.72.771 1.72 1.719V6.66c0 .948-.772 1.719-1.72 1.719-.947 0-1.718-.77-1.718-1.719z" transform="translate(-242 -719) translate(145 696) translate(98 24)"/>
                    </g>
                </g>
            </g>
        </g>
    </g>
</svg>
