<svg xmlns="http://www.w3.org/2000/svg" width="12" height="10" viewBox="0 0 12 10">
    <g fill="none" fillRule="evenodd">
        <g fill="#000" fillRule="nonzero">
            <g>
                <path d="M10.875.022h-9.75C.505.022 0 .527 0 1.147v6.75c0 .62.505 1.125 1.125 1.125h9.75c.62 0 1.125-.505 1.125-1.125v-6.75c0-.62-.505-1.125-1.125-1.125zm0 .75c.05 0 .1.01.144.03L6 5.15.981.8c.045-.018.093-.029.144-.029h9.75zm0 7.5h-9.75c-.207 0-.375-.168-.375-.375V1.594L5.754 5.93c.071.06.158.091.246.091s.175-.03.246-.091l5.004-4.337v6.303c0 .207-.168.375-.375.375z" transform="translate(-201.000000, -302.000000) translate(201.000000, 302.000000)"/>
            </g>
        </g>
    </g>
</svg>
