<svg xmlns="http://www.w3.org/2000/svg" width="11" height="11" viewBox="0 0 11 11">
    <g fill="none" fillRule="evenodd">
        <g fill="#16132F" fillRule="nonzero">
            <g>
                <path d="M9.534 0H1.266C.568 0 0 .568 0 1.266v8.268c0 .698.568 1.266 1.266 1.266h8.268c.698 0 1.266-.568 1.266-1.266V1.266C10.8.568 10.232 0 9.534 0zm.422 9.534c0 .233-.189.422-.422.422H7.13V6.518h1.303l.215-1.308H7.13v-.907c0-.358.274-.633.633-.633h.864V2.362h-.865c-1.074 0-1.94.87-1.94 1.945v.903H4.556v1.308h1.266v3.438H1.266c-.233 0-.422-.189-.422-.422V1.266c0-.233.189-.422.422-.422h8.268c.233 0 .422.189.422.422v8.268z" transform="translate(-201.000000, -209.000000) translate(201.000000, 209.000000)"/>
            </g>
        </g>
    </g>
</svg>
