<svg xmlns="http://www.w3.org/2000/svg" width="20" height="15" viewBox="0 0 20 15">
    <g fill="none" fillRule="evenodd">
        <g fill="#373737" fillRule="nonzero">
            <g>
                <path d="M3.444.247c-.247-.33-.763-.33-1.01 0L.247 3.074c-.33.413-.02 1.031.516 1.031h1.093v9.55c0 .206.165.371.371.371H3.63c.206 0 .371-.165.371-.371v-9.55h1.114c.536 0 .825-.618.516-1.03L3.444.247zM19.346 0H7.796c-.185 0-.35.165-.35.35v1.383c0 .185.165.35.35.35h11.55c.186 0 .35-.165.35-.35V.35c0-.207-.164-.351-.35-.351zM16.52 3.98H7.797c-.206 0-.371.145-.371.351v1.382c0 .186.165.35.35.35H16.5c.186 0 .35-.164.35-.35V4.331c.021-.206-.144-.35-.33-.35zM13.674 7.961H7.796c-.185 0-.35.165-.35.35v1.383c0 .185.165.35.35.35h5.899c.186 0 .35-.165.35-.35V8.312c0-.206-.164-.35-.37-.35zM10.849 11.942H7.796c-.185 0-.35.165-.35.35v1.382c0 .186.165.351.35.351h3.073c.186 0 .351-.165.351-.35v-1.383c-.02-.185-.165-.35-.371-.35z" transform="translate(-742 -26) translate(742 26)"/>
            </g>
        </g>
    </g>
</svg>
