<svg xmlns="http://www.w3.org/2000/svg" width="205" height="92" viewBox="0 0 205 92">
    <g fill="none" fill-rule="evenodd">
        <g>
            <g>
                <g transform="translate(-583.000000, -315.000000) translate(455.000000, 278.000000) translate(128.400000, 37.200000)">
                    <circle cx="74.88" cy="20.16" r="5.04" fill="#E6F9FF" stroke="#43BEE5" stroke-width="1.44"/>
                    <circle cx="148.32" cy="76.32" r="3.6" fill="#E6F9FF" stroke="#43BEE5" stroke-width="1.44"/>
                    <circle cx="200.16" cy="46.08" r="4.32" fill="#E6F9FF"/>
                    <circle cx="161.28" cy="7.2" r="4.32" fill="#E6F9FF"/>
                    <path fill="#E6F9FF" d="M123.84 17.28v-7.2h-3.6c-2.784 0-5.04-2.256-5.04-5.04 0-2.784 2.256-5.04 5.04-5.04h25.92c2.784 0 5.04 2.256 5.04 5.04 0 2.784-2.256 5.04-5.04 5.04h-10.8v7.2h25.2c2.784 0 5.04 2.256 5.04 5.04 0 2.784-2.256 5.04-5.04 5.04h-36c-2.784 0-5.04-2.256-5.04-5.04 0-2.784 2.256-5.04 5.04-5.04h-.72zM177.84 37.44c2.784 0 5.04 2.256 5.04 5.04 0 2.784-2.256 5.04-5.04 5.04h-29.52v11.52h19.44c2.784 0 5.04 2.256 5.04 5.04 0 2.784-2.256 5.04-5.04 5.04h-41.04c-1.453 6.826-5.054 12.76-12.96 16.905l-.317-.022c-.715 1.914-2.56 3.277-4.723 3.277H5.04C2.256 89.28 0 87.024 0 84.24c0-2.784 2.256-5.04 5.04-5.04h32.4V69.12h-9.36c-2.784 0-5.04-2.256-5.04-5.04 0-2.784 2.256-5.04 5.04-5.04H72V47.52h-3.6c-2.784 0-5.04-2.256-5.04-5.04 0-2.784 2.256-5.04 5.04-5.04h109.44z"/>
                    <circle cx="99.6" cy="61.2" r="28.8" fill="#C8F2FF"/>
                    <g fill="#43BEE5" fill-rule="nonzero">
                        <path d="M28.296 4.248L12.132 21.06c-.9.936-2.34.936-3.24 0L.828 12.6c-.9-.936-.9-2.448 0-3.384.9-.936 2.34-.936 3.24 0l6.48 6.768L25.092.864c.9-.936 2.34-.936 3.24 0 .864.936.864 2.448-.036 3.384z" transform="translate(86.400000, 50.400000)"/>
                    </g>
                    <path fill="#43BEE5" fill-rule="nonzero" d="M99.36 29.52c17.099 0 30.96 13.861 30.96 30.96s-13.861 30.96-30.96 30.96c-10.094 0-19.369-4.867-25.143-12.89l-.335-.476-.433-.626 2.457-1.507.388.558C81.512 83.998 90.051 88.56 99.36 88.56c15.508 0 28.08-12.572 28.08-28.08S114.868 32.4 99.36 32.4c-1.136 0-2.264.067-3.379.201l-.834.113-.827.124v-2.916l.619-.089c1.455-.208 2.932-.313 4.421-.313zm-10.32 1.762l.961-.34L90 33.993l-.468.175C78.816 38.172 71.511 48.34 71.285 59.924l-.005.552.005 1-2.88.002-.005-.998c0-13.035 8.13-24.524 20.11-29.005l.53-.193z"/>
                </g>
            </g>
        </g>
    </g>
</svg>
