<svg xmlns="http://www.w3.org/2000/svg" width="15" height="15" viewBox="0 0 15 15">
    <g fill="none" fillRule="evenodd">
        <g fill="#373737" fillRule="nonzero">
            <g>
                <path d="M13.15 9.303h-1.478c-.058 0-.106-.047-.106-.106V5.083c0-.059.048-.106.106-.106h1.477c.321 0 .63-.134.846-.367.214-.23.319-.529.296-.841-.043-.584-.536-1.042-1.122-1.042h-1.497c-.058 0-.106-.048-.106-.106V1.145c0-.322-.133-.63-.366-.846-.23-.214-.53-.319-.842-.296-.584.043-1.042.536-1.042 1.122V2.62c0 .058-.048.106-.106.106H5.096c-.059 0-.107-.048-.107-.106V1.145c0-.322-.133-.63-.366-.846-.23-.214-.529-.319-.842-.296C3.197.046 2.74.54 2.74 1.125V2.62c0 .058-.048.106-.107.106H1.16c-.322 0-.63.133-.846.366-.214.23-.32.53-.296.842.043.584.536 1.042 1.122 1.042h1.494c.06 0 .107.047.107.106v4.114c0 .059-.048.106-.107.106H1.16c-.322 0-.63.134-.846.367-.214.23-.32.529-.296.841.043.584.536 1.042 1.122 1.042h1.494c.06 0 .107.048.107.106v1.476c0 .322.133.63.366.846.23.214.529.319.842.296.584-.043 1.041-.536 1.041-1.122v-1.496c0-.058.048-.106.107-.106H9.21c.058 0 .106.048.106.106v1.476c0 .322.134.63.367.846.209.194.475.299.757.299l.084-.003c.584-.043 1.042-.536 1.042-1.122v-1.496c0-.058.048-.106.106-.106h1.497c.586 0 1.079-.458 1.122-1.042.023-.312-.082-.611-.296-.841-.216-.233-.525-.367-.846-.367zm-3.834-.106c0 .059-.048.106-.106.106H5.096c-.059 0-.107-.047-.107-.106V5.083c0-.059.048-.106.107-.106H9.21c.058 0 .106.047.106.106v4.114z" transform="translate(-709 -26) translate(709 26)"/>
            </g>
        </g>
    </g>
</svg>
