<svg xmlns="http://www.w3.org/2000/svg" width="12" height="12" viewBox="0 0 12 12">
    <g fill="none" fillRule="evenodd">
        <g fill="#43BEE5" fillRule="nonzero">
            <g>
                <g>
                    <path d="M2.235 12c-.175 0-.349-.048-.504-.144-.285-.176-.455-.481-.455-.816V9.633C.272 8.362-.161 6.774.054 5.145.399 2.531 2.547.388 5.162.051c1.842-.238 3.65.366 4.962 1.655 1.313 1.29 1.948 3.086 1.743 4.927-.297 2.668-2.45 4.862-5.12 5.218-1.066.141-2.142-.006-3.13-.429l-.952.476c-.137.068-.284.102-.43.102zM5.271.895C3.03 1.184 1.192 3.018.897 5.256c-.19 1.444.211 2.849 1.131 3.955.064.076.098.172.098.272v1.557c0 .05.029.078.052.093.024.014.062.027.107.004l1.132-.566c.116-.058.253-.06.371-.004.891.418 1.875.57 2.845.441 2.29-.305 4.135-2.184 4.39-4.468.175-1.581-.37-3.122-1.495-4.227C8.403 1.207 6.852.69 5.271.895zM5.248.51h.018-.018z" transform="translate(-201.000000, -162.000000) translate(201.000000, 162.000000) translate(0.011718, 0.000001)"/>
                    <path d="M2.998 7.297L4.949 4.52c.082-.142.27-.18.4-.082l1.308.98c.088.067.208.073.303.016l1.592-1.126c.234-.14.506.112.384.356L7.36 7.39c-.071.142-.248.193-.384.111L5.231 6.454c-.08-.048-.179-.052-.262-.01L3.356 7.676c-.241.12-.492-.145-.358-.379z" transform="translate(-201.000000, -162.000000) translate(201.000000, 162.000000) translate(0.011718, 0.000001)"/>
                </g>
            </g>
        </g>
    </g>
</svg>
