<svg xmlns="http://www.w3.org/2000/svg" width="17" height="20" viewBox="0 0 17 20">
    <g fill="none" fillRule="evenodd">
        <g fill="#000" fillRule="nonzero">
            <g>
                <path d="M16.586 16.37v-1.608c0-.077-.053-.172-.117-.215-.552-.372-2.654-2.085-2.654-4.613V7.412c0-3.368-2.462-4.87-5.501-4.87s-5.502 1.502-5.502 4.87v2.522c0 2.528-2.1 4.241-2.653 4.613-.064.043-.117.138-.117.215v1.608c0 .077.062.14.139.14h16.266c.077 0 .14-.062.14-.14zM10.751 17.253H5.876c0 1.346.592 2.437 2.438 2.437s2.437-1.09 2.437-2.437zM9.706 2.117v-.724C9.706.623 9.083 0 8.314 0 7.544 0 6.92.624 6.92 1.393v.724c.442-.086.907-.132 1.393-.132.485 0 .95.046 1.392.132z" transform="translate(-1278 -24) translate(1278 24)"/>
            </g>
        </g>
    </g>
</svg>
