<svg xmlns="http://www.w3.org/2000/svg" width="12" height="10" viewBox="0 0 12 10">
    <g fill="none" fillRule="evenodd">
        <g fill="#16132F" fillRule="nonzero">
            <g>
                <g>
                    <path d="M.19 8.68c1.11.705 2.404 1.078 3.739 1.078 1.955 0 3.746-.751 5.045-2.115 1.242-1.305 1.926-3.058 1.892-4.838.47-.403 1.025-1.172 1.025-1.922 0-.288-.312-.47-.565-.324-.443.26-.846.328-1.261.212-.848-.826-2.11-1-3.172-.427-.93.5-1.446 1.415-1.4 2.415-1.569-.192-3.019-.979-4.03-2.202-.166-.2-.48-.176-.613.05-.487.834-.482 1.8-.058 2.581-.202.036-.326.205-.326.389 0 .784.353 1.505.921 1.997-.106.102-.14.254-.096.389.25.75.816 1.338 1.524 1.632-.77.367-1.62.49-2.378.397-.392-.053-.586.474-.247.688zm3.841-.957c.28-.215.132-.664-.22-.672-.62-.013-1.185-.318-1.536-.799.17-.01.345-.037.512-.082.38-.103.362-.652-.024-.73C2.06 5.3 1.51 4.79 1.304 4.13c.189.047.38.073.572.077.38.002.523-.485.214-.688-.698-.46-.995-1.271-.798-2.034C2.51 2.719 4.162 3.462 5.91 3.546c.25.016.439-.22.384-.458-.238-1.03.337-1.751.955-2.084.61-.33 1.592-.433 2.344.356.223.236.977.245 1.36.155-.171.324-.436.632-.683.805-.106.074-.166.197-.16.325.08 1.643-.531 3.276-1.679 4.48C7.275 8.34 5.677 9.007 3.93 9.007c-.695 0-1.376-.113-2.02-.33.77-.15 1.501-.476 2.122-.954z" transform="translate(-201.000000, -256.000000) translate(176.000000, 135.000000) translate(25.000000, 121.000000)"/>
                </g>
            </g>
        </g>
    </g>
</svg>
