<?xml version="1.0" encoding="UTF-8"?>
<svg width="173px" height="36px" viewBox="0 0 173 36" version="1.1" xmlns="http://www.w3.org/2000/svg" xmlns:xlink="http://www.w3.org/1999/xlink">
    <!-- Generator: Sketch 63.1 (92452) - https://sketch.com -->
    <title>Monogram Copy</title>
    <desc>Created with Sketch.</desc>
    <g id="Monogram-Copy" stroke="none" stroke-width="1" fill="none" fill-rule="evenodd">
        <g id="Group" transform="translate(2.000000, 2.000000)">
            <g id="Group-4">
                <rect id="Rectangle-Copy-11" fill="#2F2E2E" x="0" y="0" width="32.725" height="32.725" rx="10.44225"></rect>
                <g id="Group-15-Copy-4" transform="translate(6.800000, 5.950000)">
                    <g id="Group-15-Copy">
                        <path d="M9.775,22.1 C12.8649696,22.1 15.2666287,21.2770013 16.9799772,19.6310038 C18.6933257,17.9850064 19.55,15.651563 19.55,12.6306735 L19.55,10.4567339 L13.756307,10.4567339 L13.756307,12.4563914 C13.756307,15.709657 12.4490122,17.3362898 9.83442249,17.3362898 C7.20002533,17.3362898 5.88282675,15.709657 5.88282675,12.4563914 L5.88282675,0 L0,0 L0,12.6306735 C0,15.651563 0.856674265,17.9850064 2.5700228,19.6310038 C4.28337133,21.2770013 6.6850304,22.1 9.775,22.1 Z" id="U" fill="#FFFFFF" fill-rule="nonzero"></path>
                        <polyline id="Path-9" stroke="#50C2E6" stroke-width="5.6916" points="9.775 13.8711573 9.775 2.83753659 16.5678752 2.83753659 16.5678752 9.81178676"></polyline>
                        <path d="M12.6483033,16.4952405 C12.6483033,14.8986303 11.3791425,13.6043221 9.76903868,13.6043221 C8.15893485,13.6043221 6.89573538,14.8986303 6.89573538,16.4952405 L12.6483033,16.4952405 Z" id="Oval" fill="#50C2E6" transform="translate(9.772019, 15.049781) rotate(-180.000000) translate(-9.772019, -15.049781) "></path>
                    </g>
                </g>
            </g>
            <g id="UnReveald" transform="translate(39.381396, 7.225000)" fill-rule="nonzero">
                <path d="M6.7734375,19.3740234 C8.82373047,19.3740234 10.46521,18.8116455 11.697876,17.6868896 C12.930542,16.5621338 13.546875,15.0368652 13.546875,13.111084 L13.546875,13.111084 L13.546875,0.99609375 L10.4091797,0.99609375 L10.4091797,13.0239258 C10.4091797,15.5805664 9.19726563,16.8588867 6.7734375,16.8588867 C5.578125,16.8588867 4.67333984,16.5393066 4.05908203,15.9001465 C3.44482422,15.2609863 3.13769531,14.3354492 3.13769531,13.1235352 L3.13769531,13.1235352 L3.13769531,0.99609375 L3.62376795e-14,0.99609375 L3.62376795e-14,13.0986328 C3.62376795e-14,15.065918 0.610107422,16.6036377 1.83032227,17.711792 C3.05053711,18.8199463 4.69824219,19.3740234 6.7734375,19.3740234 Z M20.9050196,19.125 L20.9050196,9.53759766 C21.5026758,8.43359375 22.4116114,7.8815918 23.6318262,7.8815918 C24.4702051,7.8815918 25.074087,8.08703613 25.4434717,8.4979248 C25.8128565,8.90881348 25.9975489,9.54174805 25.9975489,10.3967285 L25.9975489,10.3967285 L25.9975489,19.125 L29.0231836,19.125 L29.0231836,10.2224121 C28.9733789,7.01000977 27.5456446,5.40380859 24.7399805,5.40380859 C23.1213282,5.40380859 21.8139551,6.00561523 20.8178614,7.20922852 L20.8178614,7.20922852 L20.7307032,5.65283203 L17.8793848,5.65283203 L17.8793848,19.125 L20.9050196,19.125 Z" id="Un" fill="#2F2E2E"></path>
                <path d="M36.8544727,19.125 L36.8544727,12.1398926 L40.3657032,12.1398926 L44.0014454,19.125 L47.375713,19.125 L47.375713,18.9631348 L43.3041798,11.4052734 C44.3500782,10.965332 45.16563,10.3365479 45.750835,9.5189209 C46.3360401,8.70129395 46.6286427,7.68652344 46.6286427,6.47460938 C46.6286427,4.69824219 46.0600391,3.34106445 44.9228321,2.40307617 C43.7856251,1.46508789 42.1711231,0.99609375 40.0793263,0.99609375 L40.0793263,0.99609375 L33.7043263,0.99609375 L33.7043263,19.125 L36.8544727,19.125 Z M40.0917774,9.61230469 L36.8544727,9.61230469 L36.8544727,3.53613281 L40.1789356,3.53613281 C41.2746388,3.55273438 42.0984913,3.82666016 42.6504932,4.35791016 C43.2024952,4.88916016 43.4784962,5.64038086 43.4784962,6.61157227 C43.4784962,7.54125977 43.1796681,8.27380371 42.5820118,8.8092041 C41.9843556,9.34460449 41.1542774,9.61230469 40.0917774,9.61230469 L40.0917774,9.61230469 Z M56.5641798,19.3740234 C57.6847853,19.3740234 58.6954054,19.1519775 59.5960402,18.7078857 C60.4966749,18.2637939 61.2167677,17.6391602 61.7563185,16.8339844 L61.7563185,16.8339844 L60.125215,15.2775879 C59.2536329,16.3981934 58.1247267,16.9584961 56.7384962,16.9584961 C55.7507033,16.9584961 54.9310011,16.6347656 54.2793898,15.9873047 C53.6277784,15.3398438 53.2563185,14.4599609 53.1650099,13.3476562 L53.1650099,13.3476562 L61.9679884,13.3476562 L61.9679884,12.1274414 C61.9679884,9.98583984 61.4678663,8.32983398 60.4676222,7.15942383 C59.4673781,5.98901367 58.0500197,5.40380859 56.215547,5.40380859 C55.0617384,5.40380859 54.01584,5.69848633 53.0778517,6.2878418 C52.1398634,6.87719727 51.4114699,7.7010498 50.892671,8.75939941 C50.3738722,9.81774902 50.1144728,11.0192871 50.1144728,12.3640137 L50.1144728,12.3640137 L50.1144728,12.7375488 C50.1144728,14.7463379 50.7100538,16.3546143 51.9012159,17.5623779 C53.0923781,18.7701416 54.6466993,19.3740234 56.5641798,19.3740234 Z M58.9797072,11.1313477 L53.2148146,11.1313477 C53.3559279,10.09375 53.6817335,9.28442383 54.1922316,8.70336914 C54.7027296,8.12231445 55.3730177,7.83178711 56.2030958,7.83178711 C57.0414747,7.83178711 57.6972365,8.09118652 58.170381,8.60998535 C58.6435255,9.12878418 58.9133009,9.89453125 58.9797072,10.9072266 L58.9797072,10.9072266 L58.9797072,11.1313477 Z M71.5175392,19.125 L76.1867287,5.65283203 L73.0614845,5.65283203 L70.2101662,15.2900391 L67.3214943,5.65283203 L64.183799,5.65283203 L68.890342,19.125 L71.5175392,19.125 Z M85.1510744,19.3740234 C86.2716799,19.3740234 87.2823,19.1519775 88.1829348,18.7078857 C89.0835695,18.2637939 89.8036623,17.6391602 90.3432131,16.8339844 L90.3432131,16.8339844 L88.7121096,15.2775879 C87.8405276,16.3981934 86.7116213,16.9584961 85.3253908,16.9584961 C84.3375979,16.9584961 83.5178957,16.6347656 82.8662844,15.9873047 C82.2146731,15.3398438 81.8432131,14.4599609 81.7519045,13.3476562 L81.7519045,13.3476562 L90.554883,13.3476562 L90.554883,12.1274414 C90.554883,9.98583984 90.054761,8.32983398 89.0545168,7.15942383 C88.0542727,5.98901367 86.6369143,5.40380859 84.8024416,5.40380859 C83.648633,5.40380859 82.6027346,5.69848633 81.6647463,6.2878418 C80.726758,6.87719727 79.9983645,7.7010498 79.4795656,8.75939941 C78.9607668,9.81774902 78.7013674,11.0192871 78.7013674,12.3640137 L78.7013674,12.3640137 L78.7013674,12.7375488 C78.7013674,14.7463379 79.2969485,16.3546143 80.4881106,17.5623779 C81.6792727,18.7701416 83.233594,19.3740234 85.1510744,19.3740234 Z M87.5666018,11.1313477 L81.8017092,11.1313477 C81.9428225,10.09375 82.2686281,9.28442383 82.7791262,8.70336914 C83.2896242,8.12231445 83.9599123,7.83178711 84.7899904,7.83178711 C85.6283694,7.83178711 86.2841311,8.09118652 86.7572756,8.60998535 C87.2304201,9.12878418 87.5001955,9.89453125 87.5666018,10.9072266 L87.5666018,10.9072266 L87.5666018,11.1313477 Z M98.373721,19.3740234 C99.7682522,19.3740234 100.946963,18.8718262 101.909854,17.8674316 C102.009463,18.4484863 102.125674,18.8676758 102.258487,19.125 L102.258487,19.125 L105.346377,19.125 L105.346377,18.9133301 C105.006045,18.1911621 104.835879,17.2241211 104.835879,16.012207 L104.835879,16.012207 L104.835879,9.93603516 C104.810977,8.5 104.329532,7.38562012 103.391543,6.59289551 C102.453555,5.8001709 101.195987,5.40380859 99.6188381,5.40380859 C98.5812405,5.40380859 97.641177,5.58642578 96.7986477,5.95166016 C95.9561184,6.31689453 95.2899807,6.82116699 94.8002346,7.46447754 C94.3104885,8.10778809 94.0656155,8.79882812 94.0656155,9.53759766 L94.0656155,9.53759766 L97.0912503,9.53759766 C97.0912503,9.00634766 97.311221,8.56848145 97.7511624,8.22399902 C98.1911038,7.8795166 98.7555569,7.70727539 99.4445217,7.70727539 C100.241397,7.70727539 100.834903,7.91687012 101.225039,8.33605957 C101.615176,8.75524902 101.810244,9.31347656 101.810244,10.0107422 L101.810244,10.0107422 L101.810244,10.8947754 L99.9550198,10.8947754 C97.9711331,10.8947754 96.4458645,11.2786865 95.3792141,12.0465088 C94.3125637,12.8143311 93.7792385,13.9162598 93.7792385,15.3522949 C93.7792385,16.489502 94.2067288,17.4440918 95.0617092,18.2160645 C95.9166897,18.9880371 97.0206936,19.3740234 98.373721,19.3740234 Z M98.9340237,16.9460449 C98.2865628,16.9460449 97.7698391,16.7738037 97.3838528,16.4293213 C96.9978665,16.0848389 96.8048733,15.6220703 96.8048733,15.0410156 C96.8048733,14.3271484 97.0870999,13.7751465 97.651553,13.3850098 C98.2160061,12.994873 99.0585354,12.7998047 100.179141,12.7998047 L100.179141,12.7998047 L101.810244,12.7998047 L101.810244,15.3398438 C101.544619,15.8295898 101.148257,16.2197266 100.621157,16.5102539 C100.094058,16.8007812 99.5316799,16.9460449 98.9340237,16.9460449 Z M112.530205,19.125 L112.530205,0 L109.504571,0 L109.504571,19.125 L112.530205,19.125 Z M121.855635,19.3740234 C123.366377,19.3740234 124.574141,18.8261719 125.478926,17.7304688 L125.478926,17.7304688 L125.62834,19.125 L128.367598,19.125 L128.367598,0 L125.341963,0 L125.341963,6.89794922 C124.46208,5.90185547 123.308272,5.40380859 121.880537,5.40380859 C120.261885,5.40380859 118.971114,6.03259277 118.008223,7.29016113 C117.045332,8.54772949 116.563887,10.2141113 116.563887,12.2893066 C116.563887,14.4724121 117.051558,16.1989746 118.0269,17.4689941 C119.002242,18.7390137 120.278487,19.3740234 121.855635,19.3740234 Z M122.627608,16.9086914 C121.656416,16.9086914 120.907271,16.5247803 120.380171,15.756958 C119.853072,14.9891357 119.589522,13.9204102 119.589522,12.5507812 C119.589522,10.9902344 119.855147,9.82189941 120.386397,9.04577637 C120.917647,8.26965332 121.673018,7.8815918 122.65251,7.8815918 C123.889327,7.8815918 124.785811,8.42114258 125.341963,9.50024414 L125.341963,9.50024414 L125.341963,15.2526855 C124.769209,16.3566895 123.864424,16.9086914 122.627608,16.9086914 Z" id="Reveald" fill="#50C2E6"></path>
            </g>
        </g>
    </g>
</svg>