<svg width="38" height="38" xmlns="http://www.w3.org/2000/svg">
    <g fill="none" fill-rule="evenodd">
        <rect fill="#2F2E2E" fill-rule="nonzero" width="37.547" height="37.547" rx="11.941"/>
        <path d="M19.017 32.183c3.546 0 6.301-.944 8.267-2.833 1.966-1.888 2.949-4.566 2.949-8.032v-2.494h-6.648v2.294c0 3.733-1.5 5.6-4.5 5.6-3.022 0-4.533-1.867-4.533-5.6V6.827h-6.75v14.491c0 3.466.983 6.144 2.949 8.032 1.965 1.889 4.721 2.833 8.266 2.833z" fill="#FFF" fill-rule="nonzero"/>
        <path d="M19.017 22.742v-12.66h5.094a2.7 2.7 0 0 1 2.7 2.7v5.302" stroke="#50C2E6" stroke-width="6.509"/>
        <path d="M15.714 22.436a3.296 3.296 0 0 0 3.303 3.316c1.848 0 3.297-1.485 3.297-3.316h-6.6z" fill="#50C2E6" fill-rule="nonzero"/>
    </g>
</svg>
