<?xml version="1.0" encoding="UTF-8"?>
<svg width="89px" height="89px" viewBox="0 0 89 89" >
    <title>Group 4</title>
    <g id="Styleguide" stroke="none" strokeWidth="1" fill="none" fillRule="evenodd">
        <g id="3" transform="translate(-131.000000, -491.000000)">
            <g id="Group-2" transform="translate(0.000000, 435.000000)">
                <g id="Group-4" transform="translate(131.000000, 56.000000)">
                    <rect id="Rectangle-Copy-11" fill="#2F2E2E" x="0" y="0" width="89" height="89" rx="28.30464"></rect>
                    <g id="Group-15-Copy" transform="translate(18.493506, 16.181818)">
                        <path d="M26.5844156,60.1038961 C34.9879998,60.1038961 41.5196318,57.8656414 46.1793116,53.3891319 C50.8389913,48.9126224 53.1688312,42.5665119 53.1688312,34.3508004 L53.1688312,28.4384817 L37.4121107,28.4384817 L37.4121107,33.8768171 C37.4121107,42.7245064 33.8567481,47.148351 26.746023,47.148351 C19.5814287,47.148351 15.9991316,42.7245064 15.9991316,33.8768171 L15.9991316,0 L0,0 L0,34.3508004 C0,42.5665119 2.32983987,48.9126224 6.9895196,53.3891319 C11.6491993,57.8656414 18.1808313,60.1038961 26.5844156,60.1038961 Z" id="U" fill="#FFFFFF" fillRule="nonzero"></path>
                        <path d="M26.5844156,37.7244615 L26.5844156,7.71705903 L38.6585452,7.71705903 C42.1931676,7.71705903 45.0585452,10.5824366 45.0585452,14.117059 L45.0585452,26.6844621 L45.0585452,26.6844621" id="Path-9" stroke="#50C2E6" strokeWidth="15.427584"></path>
                        <path d="M34.398747,44.8610055 C34.398747,40.5188113 30.947095,36.9987674 26.568203,36.9987674 C22.189311,36.9987674 18.7538716,40.5188113 18.7538716,44.8610055 L34.398747,44.8610055 Z" id="Oval" fill="#50C2E6" transform="translate(26.576309, 40.929886) rotate(-180.000000) translate(-26.576309, -40.929886) "></path>
                    </g>
                </g>
            </g>
        </g>
    </g>
</svg>